<svg xmlns="http://www.w3.org/2000/svg" xmlns:xlink="http://www.w3.org/1999/xlink" width="128" height="41" viewBox="0 0 128 41">
  <title>Logo AFP</title>
  <path fill="#FFF" d="M70.7178155,20.09164 L65.2412081,20.09164 L65.2412081,12.7976229 L70.7178155,12.7976229 C73.3394853,12.7976229 74.6682866,13.9951743 74.6682866,16.4742686 C74.6682866,18.9533629 73.3394853,20.09164 70.7178155,20.09164 L70.7178155,20.09164 Z M71.3515261,6.8511 L58.5917824,6.83306 L58.5917824,34.1664714 L65.2412081,34.1664714 L65.2412081,26.0562029 L71.3515261,26.0562029 C74.3189741,26.0562029 81.221342,25.0853229 81.221342,16.4534171 C81.221342,7.82151143 74.3189741,6.8511 71.3515261,6.8511 L71.3515261,6.8511 Z M41.6382859,20.09164 L53.9167677,20.09164 L50.0386331,26.0562029 L41.6382859,26.0562029 L41.6382859,34.1664714 L34.9888603,34.1664714 L34.9888603,6.83306 L53.9167677,6.83306 L53.9167677,12.7976229 L41.6382859,12.7976229 L41.6382859,20.09164 Z M29.4566457,6.83306 L29.4566457,34.1664714 L22.8075735,34.1664714 L22.8075735,28.4629029 L10.8966651,28.4629029 L7.18853321,34.1664714 L0,34.1664714 L17.7687553,6.83306 L17.7784159,6.83306 L29.4566457,6.83306 Z M22.8075735,12.7797 L21.0917599,12.7797 L14.6373131,22.7084943 L22.8075735,22.7084943 L22.8075735,12.7797 Z M107.382905,0 C95.9962595,0 86.7658091,9.17802571 86.7658091,20.5 C86.7658091,31.8218571 95.9962595,41 107.382905,41 C118.769432,41 128,31.8218571 128,20.5 C128,9.17802571 118.769432,0 107.382905,0 L107.382905,0 Z" mask="url(#logo-afp-b)"/>
</svg>
